<?xml version="1.0" encoding="UTF-8" standalone="no"?>
<svg
   xmlns:dc="http://purl.org/dc/elements/1.1/"
   xmlns:cc="http://creativecommons.org/ns#"
   xmlns:rdf="http://www.w3.org/1999/02/22-rdf-syntax-ns#"
   xmlns:svg="http://www.w3.org/2000/svg"
   xmlns="http://www.w3.org/2000/svg"
   viewBox="0 0 575.24402 406.67734"
   height="406.67734"
   width="575.24402"
   xml:space="preserve"
   id="svg2"
   version="1.1"><metadata
     id="metadata8"><rdf:RDF><cc:Work
         rdf:about=""><dc:format>image/svg+xml</dc:format><dc:type
           rdf:resource="http://purl.org/dc/dcmitype/StillImage" /></cc:Work></rdf:RDF></metadata><defs
     id="defs6"><clipPath
       id="clipPath18"
       clipPathUnits="userSpaceOnUse"><path
         id="path16"
         d="M 0,305.008 H 431.433 V 0 H 0 Z" /></clipPath></defs><g
     transform="matrix(1.3333333,0,0,-1.3333333,0,406.67733)"
     id="g10"><g
       id="g12"><g
         clip-path="url(#clipPath18)"
         id="g14"><g
           transform="translate(349.8846,154.5543)"
           id="g20"><path
             id="path22"
             style="fill:#edff00;fill-opacity:1;fill-rule:nonzero;stroke:none"
             d="m 0,0 c -3.025,0 -5.476,-2.455 -5.476,-5.484 0,-3.029 2.451,-5.482 5.476,-5.482 3.027,0 5.478,2.453 5.478,5.482 C 5.478,-2.455 3.027,0 0,0" /></g><g
           transform="translate(157.1873,164.6649)"
           id="g24"><path
             id="path26"
             style="fill:#003056;fill-opacity:1;fill-rule:nonzero;stroke:none"
             d="m 0,0 c -0.064,0 -0.132,0 -0.199,-0.002 l -2.254,-0.024 c -6.34,-0.07 -11.459,-3.921 -11.406,-8.582 l 0.041,-3.917 c 0.008,-0.644 -0.355,-1.266 -1.021,-1.757 -0.73,-0.536 -1.712,-0.841 -2.771,-0.851 -0.038,0 -0.075,-0.001 -0.115,-0.001 -2.028,0 -3.717,1.16 -3.732,2.526 l -0.158,14.324 c 1.174,-0.292 2.4,-0.439 3.647,-0.439 0.061,0 0.121,0 0.179,0.002 l 2.254,0.025 c 6.341,0.069 11.458,3.918 11.408,8.582 l -0.044,3.917 c -0.015,1.39 1.722,2.584 3.793,2.607 h 0.092 c 2.034,0 3.742,-1.155 3.757,-2.525 L 3.627,-0.438 C 2.461,-0.149 1.242,0 0,0 m 11.402,-8.926 -0.25,22.896 c -0.051,4.62 -5.158,8.332 -11.421,8.332 L -0.442,22.3 c -6.344,-0.07 -11.46,-3.92 -11.41,-8.582 l 0.044,-3.917 c 0.007,-0.643 -0.356,-1.266 -1.022,-1.757 -0.73,-0.536 -1.714,-0.839 -2.769,-0.85 l -2.254,-0.025 h -0.06 c -2.039,0 -3.774,1.148 -3.789,2.523 l -0.056,4.21 c 0.69,0.864 1.104,1.96 1.104,3.157 0,2.799 -2.271,5.072 -5.066,5.072 -2.801,0 -5.072,-2.273 -5.072,-5.072 0,-1.332 0.518,-2.54 1.355,-3.446 l 0.049,-3.407 0.248,-22.899 c 0.028,-2.295 1.277,-4.43 3.52,-6.006 2.137,-1.502 4.936,-2.326 7.899,-2.326 l 0.177,0.002 c 6.341,0.07 11.458,3.921 11.409,8.584 l -0.045,3.913 c -0.013,1.394 1.722,2.587 3.795,2.61 l 2.251,0.026 h 0.126 c 1.02,0 1.951,-0.292 2.664,-0.79 0.676,-0.476 1.05,-1.093 1.059,-1.737 l 0.04,-3.06 c -1.24,-1.022 -2.03,-2.57 -2.03,-4.305 0,-3.075 2.493,-5.57 5.565,-5.57 3.076,0 5.564,2.495 5.564,5.57 0,1.423 -0.534,2.717 -1.409,3.701 z" /></g><g
           transform="translate(117.8395,163.6949)"
           id="g28"><path
             id="path30"
             style="fill:#003056;fill-opacity:1;fill-rule:nonzero;stroke:none"
             d="m 0,0 c -0.657,0.954 -1.411,1.768 -2.259,2.446 -0.851,0.679 -1.746,1.241 -2.689,1.685 -0.94,0.446 -1.886,0.777 -2.836,0.988 -0.952,0.214 -1.852,0.329 -2.7,0.35 h -0.062 -18.15 c -1.498,0 -2.666,0.44 -3.505,1.322 -0.841,0.879 -1.26,2.081 -1.26,3.599 0,1.499 0.419,2.703 1.26,3.616 0.839,0.91 2.007,1.365 3.505,1.365 h 26.86 v 7.9 h -26.86 c -1.276,0 -2.651,-0.226 -4.129,-0.683 -1.477,-0.455 -2.849,-1.195 -4.111,-2.218 -1.264,-1.024 -2.318,-2.35 -3.158,-3.981 -0.839,-1.629 -1.257,-3.629 -1.257,-5.999 0,-2.37 0.418,-4.376 1.257,-6.014 0.84,-1.641 1.894,-2.967 3.158,-3.981 1.262,-1.012 2.634,-1.748 4.111,-2.203 1.478,-0.455 2.853,-0.683 4.129,-0.683 h 18.15 c 0.728,0 1.392,-0.122 1.988,-0.365 0.597,-0.242 1.103,-0.587 1.518,-1.032 0.414,-0.448 0.732,-0.973 0.956,-1.581 0.222,-0.607 0.333,-1.275 0.333,-2.005 0,-1.499 -0.419,-2.694 -1.258,-3.584 -0.841,-0.892 -2.019,-1.337 -3.537,-1.337 H -40.99 v -7.9 h 30.444 c 0.848,0 1.755,0.104 2.716,0.305 0.962,0.201 1.908,0.516 2.839,0.943 0.931,0.425 1.831,0.972 2.7,1.64 0.869,0.666 1.627,1.477 2.276,2.431 0.647,0.95 1.168,2.048 1.565,3.295 0.393,1.246 0.591,2.649 0.591,4.207 0,1.559 -0.192,2.957 -0.578,4.193 C 1.18,-2.047 0.658,-0.954 0,0" /></g><g
           transform="translate(214.1299,161.9928)"
           id="g32"><path
             id="path34"
             style="fill:#003056;fill-opacity:1;fill-rule:nonzero;stroke:none"
             d="m 0,0 h -27.74 v 3.191 c 0,2.206 0.306,4.086 0.927,5.636 0.615,1.55 1.398,2.84 2.351,3.871 0.951,1.035 1.993,1.846 3.123,2.433 1.135,0.585 2.213,1.021 3.234,1.305 1.024,0.284 1.923,0.459 2.703,0.531 0.777,0.071 1.289,0.107 1.532,0.107 l 13.87,0 z M 6.739,23.82 C 6.375,24.185 5.948,24.467 5.465,24.67 4.978,24.872 4.462,24.973 3.917,24.973 H -13.87 c -3.136,0 -6.031,-0.536 -8.68,-1.61 -2.651,-1.072 -4.948,-2.574 -6.891,-4.496 -1.942,-1.925 -3.46,-4.224 -4.551,-6.897 -1.093,-2.671 -1.64,-5.6 -1.64,-8.779 v -21.783 h 7.892 V -7.899 H 0 v -10.693 h 7.892 v 39.586 c 0,0.548 -0.102,1.061 -0.303,1.549 -0.203,0.485 -0.487,0.912 -0.85,1.277" /></g><g
           transform="translate(266.7289,153.0305)"
           id="g36"><path
             id="path38"
             style="fill:#003056;fill-opacity:1;fill-rule:nonzero;stroke:none"
             d="m 0,0 c 0,-0.425 -0.06,-0.758 -0.182,-1.003 -0.121,-0.242 -0.264,-0.414 -0.426,-0.515 -0.16,-0.102 -0.344,-0.164 -0.545,-0.183 -0.203,-0.02 -0.375,-0.03 -0.516,-0.03 H -27.71 v 27.767 h 22.49 c 1.093,0 1.638,-0.568 1.638,-1.701 v -1.488 c 0,-1.032 -0.156,-1.96 -0.47,-2.78 -0.314,-0.82 -0.764,-1.524 -1.351,-2.111 -0.587,-0.589 -1.296,-1.038 -2.124,-1.352 -0.831,-0.315 -1.761,-0.471 -2.793,-0.471 H -24.554 V 8.174 h 17.785 c 1.033,0 1.962,-0.158 2.792,-0.472 0.83,-0.314 1.539,-0.764 2.126,-1.353 C -1.266,5.762 -0.809,5.057 -0.485,4.238 -0.164,3.418 0,2.491 0,1.46 Z m 5.751,-6.287 c 0.76,0.952 1.307,1.985 1.64,3.098 0.333,1.112 0.501,2.156 0.501,3.129 v 1.52 c 0,1.537 -0.173,2.946 -0.516,4.221 -0.344,1.278 -0.811,2.42 -1.398,3.433 -0.586,1.013 -1.269,1.904 -2.048,2.674 -0.779,0.769 -1.612,1.428 -2.504,1.975 1.033,1.437 1.781,2.961 2.248,4.571 0.465,1.611 0.698,3.116 0.698,4.513 v 1.488 c 0,1.763 -0.32,3.251 -0.958,4.466 -0.637,1.216 -1.435,2.203 -2.396,2.961 -0.963,0.761 -1.998,1.314 -3.112,1.656 -1.113,0.344 -2.156,0.517 -3.126,0.517 h -26.405 c -0.568,0 -1.095,-0.099 -1.58,-0.303 -0.484,-0.203 -0.903,-0.487 -1.259,-0.85 -0.354,-0.365 -0.632,-0.79 -0.835,-1.277 -0.202,-0.486 -0.303,-1.001 -0.303,-1.55 V -5.651 c 0,-0.566 0.101,-1.093 0.303,-1.58 0.203,-0.486 0.481,-0.907 0.835,-1.259 0.356,-0.356 0.775,-0.636 1.259,-0.837 0.485,-0.201 1.012,-0.305 1.58,-0.305 h 29.956 c 1.759,0 3.247,0.322 4.461,0.958 1.215,0.637 2.201,1.433 2.959,2.387" /></g><path
           id="path40"
           style="fill:#003056;fill-opacity:1;fill-rule:nonzero;stroke:none"
           d="m 281.541,143.4 h 7.89 v 43.567 h -7.89 z" /><g
           transform="translate(305.5179,186.4496)"
           id="g42"><path
             id="path44"
             style="fill:#003056;fill-opacity:1;fill-rule:nonzero;stroke:none"
             d="m 0,0 c -1.072,-0.344 -2.019,-0.805 -2.837,-1.383 -0.82,-0.577 -1.524,-1.239 -2.111,-1.99 -0.585,-0.749 -1.061,-1.531 -1.426,-2.353 -0.365,-0.821 -0.634,-1.652 -0.805,-2.491 -0.173,-0.841 -0.256,-1.627 -0.256,-2.355 V -31.96 c 0,-1.356 0.172,-2.577 0.514,-3.661 0.344,-1.083 0.805,-2.037 1.383,-2.857 0.575,-0.819 1.239,-1.519 1.986,-2.094 0.751,-0.578 1.533,-1.048 2.354,-1.413 0.818,-0.365 1.649,-0.634 2.488,-0.807 0.84,-0.171 1.626,-0.258 2.35,-0.258 h 28.472 v 7.899 H 3.64 c -1.01,0 -1.793,0.279 -2.35,0.838 -0.556,0.556 -0.835,1.339 -0.835,2.353 v 21.325 c 0,1.075 0.273,1.885 0.819,2.433 0.547,0.545 1.337,0.82 2.366,0.82 H 32.112 V 0.517 H 3.64 C 2.286,0.517 1.072,0.344 0,0" /></g><path
           id="path46"
           style="fill:#003056;fill-opacity:1;fill-rule:nonzero;stroke:none"
           d="m 76.07,120.791 h 0.882 v 9.342 H 76.07 Z" /><g
           transform="translate(87.3588,126.7346)"
           id="g48"><path
             id="path50"
             style="fill:#003056;fill-opacity:1;fill-rule:nonzero;stroke:none"
             d="m 0,0 c -0.243,0.354 -0.542,0.604 -0.895,0.745 -0.356,0.143 -0.74,0.214 -1.156,0.214 -0.466,0 -0.867,-0.103 -1.2,-0.31 C -3.584,0.44 -3.905,0.173 -4.218,-0.156 v 0.935 h -0.779 v -6.722 h 0.779 v 3.62 c 0,0.233 0.01,0.449 0.027,0.649 0.017,0.199 0.065,0.406 0.143,0.622 0.06,0.173 0.146,0.339 0.259,0.493 0.111,0.156 0.249,0.294 0.408,0.416 0.16,0.12 0.339,0.218 0.538,0.292 0.2,0.073 0.42,0.111 0.663,0.111 0.622,0 1.068,-0.153 1.335,-0.456 0.269,-0.303 0.403,-0.756 0.403,-1.362 v -4.385 h 0.779 v 4.399 c 0,0.276 -0.015,0.543 -0.045,0.799 C 0.261,-0.491 0.164,-0.243 0,0" /></g><g
           transform="translate(97.6752,126.7346)"
           id="g52"><path
             id="path54"
             style="fill:#003056;fill-opacity:1;fill-rule:nonzero;stroke:none"
             d="m 0,0 c -0.243,0.354 -0.542,0.604 -0.895,0.745 -0.356,0.143 -0.74,0.214 -1.156,0.214 -0.466,0 -0.867,-0.103 -1.2,-0.31 C -3.584,0.44 -3.905,0.173 -4.218,-0.156 v 0.935 h -0.779 v -6.722 h 0.779 v 3.62 c 0,0.233 0.01,0.449 0.027,0.649 0.017,0.199 0.065,0.406 0.143,0.622 0.06,0.173 0.146,0.339 0.259,0.493 0.111,0.156 0.249,0.294 0.408,0.416 0.16,0.12 0.339,0.218 0.538,0.292 0.2,0.073 0.42,0.111 0.663,0.111 0.622,0 1.068,-0.153 1.335,-0.456 0.269,-0.303 0.403,-0.756 0.403,-1.362 v -4.385 h 0.779 v 4.399 c 0,0.276 -0.015,0.543 -0.045,0.799 C 0.261,-0.491 0.164,-0.243 0,0" /></g><g
           transform="translate(107.8218,123.1008)"
           id="g56"><path
             id="path58"
             style="fill:#003056;fill-opacity:1;fill-rule:nonzero;stroke:none"
             d="M 0,0 C -0.087,-0.337 -0.22,-0.64 -0.403,-0.907 -0.585,-1.176 -0.82,-1.39 -1.11,-1.55 -1.4,-1.71 -1.748,-1.791 -2.154,-1.791 c -0.372,0 -0.702,0.07 -0.986,0.209 -0.286,0.137 -0.523,0.331 -0.713,0.583 -0.192,0.252 -0.336,0.551 -0.436,0.903 -0.1,0.35 -0.149,0.732 -0.149,1.148 0,0.363 0.043,0.714 0.13,1.057 0.087,0.342 0.22,0.643 0.403,0.908 0.182,0.264 0.417,0.476 0.707,0.636 0.29,0.16 0.638,0.239 1.044,0.239 0.416,0 0.766,-0.073 1.052,-0.22 C -0.818,3.525 -0.585,3.324 -0.403,3.068 -0.22,2.814 -0.087,2.513 0,2.167 0.087,1.821 0.13,1.45 0.13,1.052 0.13,0.689 0.087,0.339 0,0 m 0.196,3.563 c -0.262,0.316 -0.585,0.566 -0.975,0.751 -0.389,0.188 -0.848,0.28 -1.375,0.28 -0.519,0 -0.973,-0.092 -1.362,-0.28 C -3.905,4.129 -4.231,3.875 -4.49,3.555 -4.748,3.236 -4.944,2.861 -5.074,2.432 -5.203,2.005 -5.267,1.544 -5.267,1.052 c 0,-0.589 0.08,-1.103 0.246,-1.545 0.164,-0.442 0.388,-0.809 0.668,-1.102 0.28,-0.294 0.609,-0.516 0.986,-0.662 0.376,-0.147 0.78,-0.224 1.213,-0.234 0.468,0 0.894,0.085 1.279,0.254 0.384,0.168 0.713,0.408 0.986,0.719 0.273,0.312 0.482,0.685 0.628,1.117 0.147,0.431 0.22,0.916 0.22,1.453 0,0.492 -0.062,0.955 -0.186,1.388 -0.126,0.433 -0.32,0.807 -0.577,1.123" /></g><g
           transform="translate(115.6204,121.7514)"
           id="g60"><path
             id="path62"
             style="fill:#003056;fill-opacity:1;fill-rule:nonzero;stroke:none"
             d="m 0,0 -2.18,5.762 h -0.843 l 2.568,-6.721 H 0.416 L 3.023,5.762 H 2.18 Z" /></g><g
           transform="translate(127.299,123.2698)"
           id="g64"><path
             id="path66"
             style="fill:#003056;fill-opacity:1;fill-rule:nonzero;stroke:none"
             d="m 0,0 c 0,-0.337 -0.07,-0.628 -0.207,-0.875 -0.139,-0.248 -0.324,-0.451 -0.553,-0.611 -0.228,-0.16 -0.491,-0.279 -0.784,-0.356 -0.294,-0.079 -0.597,-0.118 -0.909,-0.118 -0.181,0 -0.361,0.024 -0.538,0.073 -0.177,0.045 -0.333,0.121 -0.467,0.22 -0.135,0.1 -0.242,0.224 -0.325,0.376 -0.083,0.151 -0.122,0.332 -0.122,0.538 0,0.46 0.165,0.8 0.498,1.026 0.333,0.226 0.8,0.357 1.396,0.402 0.337,0.027 0.675,0.061 1.012,0.104 0.337,0.043 0.67,0.133 0.999,0.273 z m 0.941,-1.9 c -0.11,0.081 -0.162,0.273 -0.162,0.576 v 3.66 c 0,0.39 -0.064,0.717 -0.188,0.986 C 0.465,3.589 0.292,3.804 0.071,3.964 -0.15,4.124 -0.408,4.24 -0.707,4.314 -1.006,4.389 -1.324,4.425 -1.661,4.425 -2.024,4.425 -2.368,4.383 -2.692,4.302 -3.017,4.22 -3.302,4.09 -3.55,3.913 -3.796,3.734 -3.998,3.505 -4.154,3.224 -4.308,2.942 -4.398,2.604 -4.425,2.207 h 0.792 c 0.034,0.293 0.106,0.538 0.215,0.731 0.107,0.196 0.244,0.352 0.414,0.469 0.169,0.117 0.365,0.199 0.59,0.246 0.224,0.047 0.473,0.07 0.74,0.07 0.605,0 1.036,-0.126 1.29,-0.382 C -0.128,3.087 0,2.76 0,2.361 0,2.241 -0.015,2.109 -0.045,1.966 -0.077,1.823 -0.156,1.721 -0.286,1.661 -0.416,1.601 -0.583,1.552 -0.784,1.518 -0.988,1.484 -1.164,1.458 -1.311,1.441 L -2.387,1.298 c -1.567,-0.207 -2.35,-0.882 -2.35,-2.024 0,-0.329 0.062,-0.612 0.183,-0.85 0.12,-0.238 0.284,-0.439 0.492,-0.604 0.207,-0.164 0.448,-0.286 0.721,-0.363 0.273,-0.078 0.555,-0.117 0.85,-0.117 0.493,0 0.95,0.096 1.375,0.286 0.424,0.19 0.8,0.466 1.129,0.83 0,-0.121 0.008,-0.236 0.027,-0.343 0.016,-0.109 0.048,-0.209 0.095,-0.299 0.049,-0.09 0.111,-0.169 0.189,-0.233 0.079,-0.066 0.182,-0.107 0.312,-0.124 0.111,-0.027 0.227,-0.04 0.35,-0.04 0.113,0 0.227,0.019 0.344,0.053 0.117,0.034 0.205,0.06 0.265,0.077 v 0.611 C 1.266,-1.964 1.05,-1.983 0.941,-1.9" /></g><g
           transform="translate(134.9415,121.3105)"
           id="g68"><path
             id="path70"
             style="fill:#003056;fill-opacity:1;fill-rule:nonzero;stroke:none"
             d="M 0,0 C -0.164,0 -0.292,0.017 -0.384,0.053 -0.474,0.087 -0.542,0.143 -0.585,0.22 -0.626,0.299 -0.653,0.397 -0.662,0.519 -0.67,0.64 -0.675,0.783 -0.675,0.946 v 4.607 h 1.26 v 0.649 h -1.26 v 1.87 H -1.452 V 6.202 H -2.4 V 5.553 h 0.948 V 0.636 c 0,-0.502 0.099,-0.85 0.304,-1.044 0.204,-0.196 0.499,-0.294 0.888,-0.294 0.19,0 0.363,0.023 0.52,0.066 0.156,0.043 0.28,0.074 0.376,0.09 V 0.09 C 0.532,0.066 0.427,0.043 0.318,0.026 0.209,0.008 0.103,0 0,0" /></g><g
           transform="translate(140.4169,124.6192)"
           id="g72"><path
             id="path74"
             style="fill:#003056;fill-opacity:1;fill-rule:nonzero;stroke:none"
             d="M 0,0 C 0.034,0.32 0.107,0.623 0.22,0.909 0.333,1.195 0.482,1.445 0.668,1.661 0.854,1.877 1.078,2.051 1.343,2.18 1.607,2.31 1.911,2.374 2.257,2.374 2.604,2.374 2.91,2.312 3.179,2.188 3.446,2.062 3.67,1.893 3.847,1.682 4.024,1.469 4.157,1.217 4.25,0.927 4.34,0.638 4.385,0.329 4.385,0 Z M 4.438,2.122 C 3.909,2.758 3.183,3.076 2.257,3.076 1.772,3.076 1.339,2.982 0.959,2.795 0.579,2.611 0.258,2.355 -0.006,2.032 -0.271,1.706 -0.474,1.328 -0.617,0.895 -0.76,0.463 -0.83,0 -0.83,-0.493 c 0,-0.493 0.059,-0.954 0.181,-1.383 0.12,-0.427 0.307,-0.799 0.559,-1.115 0.25,-0.316 0.57,-0.565 0.959,-0.745 0.39,-0.183 0.852,-0.273 1.388,-0.273 0.424,0 0.796,0.057 1.116,0.168 0.32,0.112 0.596,0.27 0.832,0.474 0.233,0.203 0.427,0.442 0.583,0.713 0.156,0.272 0.28,0.57 0.376,0.889 H 4.295 C 4.174,-2.257 3.932,-2.637 3.567,-2.906 3.206,-3.174 2.767,-3.309 2.257,-3.309 1.885,-3.309 1.558,-3.238 1.272,-3.095 0.986,-2.952 0.751,-2.762 0.564,-2.523 0.378,-2.286 0.237,-2.004 0.143,-1.68 0.047,-1.356 0,-1.012 0,-0.649 H 5.217 C 5.224,0.562 4.965,1.486 4.438,2.122" /></g><g
           transform="translate(157.3635,120.7916)"
           id="g76"><path
             id="path78"
             style="fill:#003056;fill-opacity:1;fill-rule:nonzero;stroke:none"
             d="M 0,0 H 0.44 V -0.44 C 0.44,-0.702 0.393,-0.892 0.299,-1.012 0.203,-1.134 0.103,-1.228 0,-1.298 v -0.48 c 0.277,0.087 0.504,0.245 0.681,0.474 0.177,0.23 0.265,0.535 0.265,0.915 V 1.142 H 0 Z" /></g><g
           transform="translate(171.4166,125.2548)"
           id="g80"><path
             id="path82"
             style="fill:#003056;fill-opacity:1;fill-rule:nonzero;stroke:none"
             d="M 0,0 H 4.814 V 0.752 H 0 V 4.127 H 5.333 V 4.88 h -6.215 v -9.344 h 6.345 v 0.752 l -5.463,0 z" /></g><g
           transform="translate(186.4555,126.7346)"
           id="g84"><path
             id="path86"
             style="fill:#003056;fill-opacity:1;fill-rule:nonzero;stroke:none"
             d="m 0,0 c -0.243,0.354 -0.542,0.604 -0.895,0.745 -0.356,0.143 -0.74,0.214 -1.156,0.214 -0.466,0 -0.867,-0.103 -1.2,-0.31 C -3.584,0.44 -3.905,0.173 -4.218,-0.156 v 0.935 h -0.779 v -6.722 h 0.779 v 3.62 c 0,0.233 0.01,0.449 0.027,0.649 0.017,0.199 0.065,0.406 0.143,0.622 0.06,0.173 0.146,0.339 0.259,0.493 0.111,0.156 0.249,0.294 0.408,0.416 0.16,0.12 0.339,0.218 0.538,0.292 0.2,0.073 0.42,0.111 0.663,0.111 0.622,0 1.068,-0.153 1.335,-0.456 0.269,-0.303 0.403,-0.756 0.403,-1.362 v -4.385 h 0.779 v 4.399 c 0,0.276 -0.015,0.543 -0.045,0.799 C 0.261,-0.491 0.164,-0.243 0,0" /></g><g
           transform="translate(196.8105,123.0429)"
           id="g88"><path
             id="path90"
             style="fill:#003056;fill-opacity:1;fill-rule:nonzero;stroke:none"
             d="m 0,0 c -0.103,-0.342 -0.252,-0.64 -0.448,-0.895 -0.194,-0.256 -0.432,-0.459 -0.713,-0.61 -0.282,-0.152 -0.6,-0.228 -0.955,-0.228 -0.405,0 -0.757,0.081 -1.05,0.241 -0.294,0.16 -0.536,0.378 -0.726,0.655 -0.19,0.276 -0.329,0.6 -0.416,0.967 -0.087,0.367 -0.12,0.764 -0.103,1.187 0,0.423 0.058,0.797 0.174,1.123 0.117,0.324 0.279,0.598 0.488,0.824 0.207,0.224 0.449,0.395 0.726,0.512 0.276,0.116 0.579,0.175 0.907,0.175 0.365,0 0.688,-0.074 0.974,-0.221 C -0.856,3.584 -0.619,3.382 -0.429,3.127 -0.237,2.871 -0.092,2.57 0.006,2.218 0.105,1.868 0.156,1.49 0.156,1.084 0.156,0.704 0.103,0.342 0,0 M 0.156,3.29 H 0.13 C 0.017,3.505 -0.128,3.7 -0.305,3.873 -0.482,4.046 -0.677,4.189 -0.89,4.302 -1.101,4.413 -1.319,4.5 -1.544,4.56 -1.768,4.622 -1.99,4.652 -2.205,4.652 -2.75,4.652 -3.213,4.56 -3.595,4.379 -3.975,4.197 -4.289,3.949 -4.536,3.633 -4.782,3.317 -4.961,2.942 -5.074,2.51 -5.187,2.077 -5.243,1.616 -5.243,1.123 c 0,-0.468 0.062,-0.918 0.183,-1.351 0.122,-0.432 0.304,-0.81 0.551,-1.134 0.246,-0.325 0.558,-0.585 0.935,-0.779 0.376,-0.195 0.818,-0.291 1.33,-0.291 0.476,0 0.931,0.105 1.369,0.316 0.437,0.212 0.779,0.526 1.031,0.94 C 0.164,-1.563 0.145,-1.945 0.098,-2.316 0.049,-2.688 -0.056,-3.021 -0.22,-3.315 -0.386,-3.608 -0.626,-3.847 -0.946,-4.03 -1.268,-4.21 -1.691,-4.302 -2.22,-4.302 c -0.233,0 -0.457,0.018 -0.673,0.052 -0.217,0.034 -0.414,0.098 -0.591,0.188 -0.177,0.091 -0.331,0.217 -0.461,0.377 -0.13,0.16 -0.224,0.365 -0.286,0.617 H -5.06 c 0.007,-0.2 0.071,-0.414 0.188,-0.644 0.116,-0.229 0.287,-0.438 0.513,-0.628 0.224,-0.19 0.514,-0.348 0.869,-0.474 0.354,-0.124 0.779,-0.188 1.27,-0.188 0.642,0 1.165,0.094 1.571,0.278 0.406,0.186 0.728,0.435 0.961,0.747 0.234,0.31 0.395,0.674 0.486,1.084 0.092,0.41 0.137,0.841 0.137,1.29 V 4.47 H 0.156 Z" /></g><g
           transform="translate(207.2168,123.2698)"
           id="g92"><path
             id="path94"
             style="fill:#003056;fill-opacity:1;fill-rule:nonzero;stroke:none"
             d="m 0,0 c 0,-0.337 -0.07,-0.628 -0.207,-0.875 -0.139,-0.248 -0.324,-0.451 -0.553,-0.611 -0.228,-0.16 -0.491,-0.279 -0.784,-0.356 -0.294,-0.079 -0.597,-0.118 -0.909,-0.118 -0.181,0 -0.361,0.024 -0.538,0.073 -0.177,0.045 -0.333,0.121 -0.467,0.22 -0.135,0.1 -0.242,0.224 -0.325,0.376 -0.083,0.151 -0.122,0.332 -0.122,0.538 0,0.46 0.165,0.8 0.498,1.026 0.333,0.226 0.8,0.357 1.396,0.402 0.337,0.027 0.675,0.061 1.012,0.104 0.337,0.043 0.67,0.133 0.999,0.273 z m 0.941,-1.9 c -0.11,0.081 -0.162,0.273 -0.162,0.576 v 3.66 c 0,0.39 -0.064,0.717 -0.188,0.986 C 0.465,3.589 0.292,3.804 0.071,3.964 -0.15,4.124 -0.408,4.24 -0.707,4.314 -1.006,4.389 -1.324,4.425 -1.661,4.425 -2.024,4.425 -2.368,4.383 -2.692,4.302 -3.017,4.22 -3.302,4.09 -3.55,3.913 -3.796,3.734 -3.998,3.505 -4.154,3.224 -4.308,2.942 -4.398,2.604 -4.425,2.207 h 0.792 c 0.034,0.293 0.106,0.538 0.215,0.731 0.107,0.196 0.244,0.352 0.414,0.469 0.169,0.117 0.365,0.199 0.59,0.246 0.224,0.047 0.473,0.07 0.74,0.07 0.605,0 1.036,-0.126 1.29,-0.382 C -0.128,3.087 0,2.76 0,2.361 0,2.241 -0.015,2.109 -0.045,1.966 -0.077,1.823 -0.156,1.721 -0.286,1.661 -0.416,1.601 -0.583,1.552 -0.784,1.518 -0.988,1.484 -1.164,1.458 -1.311,1.441 L -2.387,1.298 c -1.567,-0.207 -2.35,-0.882 -2.35,-2.024 0,-0.329 0.062,-0.612 0.183,-0.85 0.12,-0.238 0.284,-0.439 0.492,-0.604 0.207,-0.164 0.448,-0.286 0.721,-0.363 0.273,-0.078 0.555,-0.117 0.85,-0.117 0.493,0 0.95,0.096 1.375,0.286 0.424,0.19 0.8,0.466 1.129,0.83 0,-0.121 0.008,-0.236 0.027,-0.343 0.016,-0.109 0.048,-0.209 0.095,-0.299 0.049,-0.09 0.111,-0.169 0.189,-0.233 0.079,-0.066 0.182,-0.107 0.312,-0.124 0.111,-0.027 0.227,-0.04 0.35,-0.04 0.113,0 0.227,0.019 0.344,0.053 0.117,0.034 0.205,0.06 0.265,0.077 v 0.611 C 1.266,-1.964 1.05,-1.983 0.941,-1.9" /></g><g
           transform="translate(218.168,123.0429)"
           id="g96"><path
             id="path98"
             style="fill:#003056;fill-opacity:1;fill-rule:nonzero;stroke:none"
             d="m 0,0 c -0.103,-0.342 -0.252,-0.64 -0.448,-0.895 -0.194,-0.256 -0.432,-0.459 -0.713,-0.61 -0.282,-0.152 -0.6,-0.228 -0.955,-0.228 -0.405,0 -0.757,0.081 -1.05,0.241 -0.294,0.16 -0.536,0.378 -0.726,0.655 -0.19,0.276 -0.329,0.6 -0.416,0.967 -0.087,0.367 -0.12,0.764 -0.103,1.187 0,0.423 0.058,0.797 0.174,1.123 0.117,0.324 0.279,0.598 0.488,0.824 0.207,0.224 0.449,0.395 0.726,0.512 0.276,0.116 0.579,0.175 0.907,0.175 0.365,0 0.688,-0.074 0.974,-0.221 C -0.856,3.584 -0.619,3.382 -0.429,3.127 -0.237,2.871 -0.092,2.57 0.006,2.218 0.105,1.868 0.156,1.49 0.156,1.084 0.156,0.704 0.103,0.342 0,0 M 0.156,3.29 H 0.13 C 0.017,3.505 -0.128,3.7 -0.305,3.873 -0.482,4.046 -0.677,4.189 -0.89,4.302 -1.101,4.413 -1.319,4.5 -1.544,4.56 -1.768,4.622 -1.99,4.652 -2.205,4.652 -2.75,4.652 -3.213,4.56 -3.595,4.379 -3.975,4.197 -4.289,3.949 -4.536,3.633 -4.782,3.317 -4.961,2.942 -5.074,2.51 -5.187,2.077 -5.243,1.616 -5.243,1.123 c 0,-0.468 0.062,-0.918 0.183,-1.351 0.122,-0.432 0.304,-0.81 0.551,-1.134 0.246,-0.325 0.558,-0.585 0.935,-0.779 0.376,-0.195 0.818,-0.291 1.33,-0.291 0.476,0 0.931,0.105 1.369,0.316 0.437,0.212 0.779,0.526 1.031,0.94 C 0.164,-1.563 0.145,-1.945 0.098,-2.316 0.049,-2.688 -0.056,-3.021 -0.22,-3.315 -0.386,-3.608 -0.626,-3.847 -0.946,-4.03 -1.268,-4.21 -1.691,-4.302 -2.22,-4.302 c -0.233,0 -0.457,0.018 -0.673,0.052 -0.217,0.034 -0.414,0.098 -0.591,0.188 -0.177,0.091 -0.331,0.217 -0.461,0.377 -0.13,0.16 -0.224,0.365 -0.286,0.617 H -5.06 c 0.007,-0.2 0.071,-0.414 0.188,-0.644 0.116,-0.229 0.287,-0.438 0.513,-0.628 0.224,-0.19 0.514,-0.348 0.869,-0.474 0.354,-0.124 0.779,-0.188 1.27,-0.188 0.642,0 1.165,0.094 1.571,0.278 0.406,0.186 0.728,0.435 0.961,0.747 0.234,0.31 0.395,0.674 0.486,1.084 0.092,0.41 0.137,0.841 0.137,1.29 V 4.47 H 0.156 Z" /></g><g
           transform="translate(224.6567,124.6192)"
           id="g100"><path
             id="path102"
             style="fill:#003056;fill-opacity:1;fill-rule:nonzero;stroke:none"
             d="M 0,0 C 0.034,0.32 0.107,0.623 0.22,0.909 0.333,1.195 0.482,1.445 0.668,1.661 0.854,1.877 1.078,2.051 1.343,2.18 1.607,2.31 1.911,2.374 2.257,2.374 2.604,2.374 2.91,2.312 3.179,2.188 3.446,2.062 3.67,1.893 3.847,1.682 4.024,1.469 4.158,1.217 4.25,0.927 4.34,0.638 4.385,0.329 4.385,0 Z M 4.438,2.122 C 3.909,2.758 3.183,3.076 2.257,3.076 1.772,3.076 1.339,2.982 0.959,2.795 0.579,2.611 0.258,2.355 -0.006,2.032 -0.271,1.706 -0.474,1.328 -0.617,0.895 -0.76,0.463 -0.83,0 -0.83,-0.493 c 0,-0.493 0.059,-0.954 0.181,-1.383 0.12,-0.427 0.307,-0.799 0.559,-1.115 0.25,-0.316 0.57,-0.565 0.959,-0.745 0.39,-0.183 0.852,-0.273 1.388,-0.273 0.424,0 0.796,0.057 1.116,0.168 0.32,0.112 0.596,0.27 0.832,0.474 0.233,0.203 0.427,0.442 0.583,0.713 0.156,0.272 0.28,0.57 0.376,0.889 H 4.295 C 4.174,-2.257 3.932,-2.637 3.567,-2.906 3.206,-3.174 2.767,-3.309 2.257,-3.309 1.885,-3.309 1.558,-3.238 1.272,-3.095 0.986,-2.952 0.751,-2.762 0.564,-2.523 0.378,-2.286 0.237,-2.004 0.143,-1.68 0.047,-1.356 0,-1.012 0,-0.649 H 5.217 C 5.224,0.562 4.965,1.486 4.438,2.122" /></g><g
           transform="translate(241.6023,120.7916)"
           id="g104"><path
             id="path106"
             style="fill:#003056;fill-opacity:1;fill-rule:nonzero;stroke:none"
             d="M 0,0 H 0.44 V -0.44 C 0.44,-0.702 0.393,-0.892 0.299,-1.012 0.203,-1.134 0.103,-1.228 0,-1.298 v -0.48 c 0.277,0.087 0.504,0.245 0.681,0.474 0.177,0.23 0.265,0.535 0.265,0.915 V 1.142 H 0 Z" /></g><g
           transform="translate(253.9296,129.382)"
           id="g108"><path
             id="path110"
             style="fill:#003056;fill-opacity:1;fill-rule:nonzero;stroke:none"
             d="M 0,0 H 2.959 V -8.59 H 3.841 V 0 H 6.799 V 0.752 H 0 Z" /></g><g
           transform="translate(264.6345,126.2543)"
           id="g112"><path
             id="path114"
             style="fill:#003056;fill-opacity:1;fill-rule:nonzero;stroke:none"
             d="m 0,0 h -0.026 v 1.259 h -0.779 v -6.722 h 0.779 v 3.296 c 0,0.372 0.032,0.728 0.098,1.07 0.065,0.343 0.182,0.638 0.349,0.89 0.17,0.25 0.397,0.45 0.681,0.596 0.286,0.147 0.649,0.217 1.092,0.207 V 1.441 C 1.631,1.441 1.178,1.334 0.837,1.123 0.495,0.91 0.216,0.536 0,0" /></g><g
           transform="translate(275.6122,123.2698)"
           id="g116"><path
             id="path118"
             style="fill:#003056;fill-opacity:1;fill-rule:nonzero;stroke:none"
             d="m 0,0 c 0,-0.337 -0.07,-0.628 -0.207,-0.875 -0.139,-0.248 -0.324,-0.451 -0.553,-0.611 -0.228,-0.16 -0.491,-0.279 -0.784,-0.356 -0.294,-0.079 -0.597,-0.118 -0.909,-0.118 -0.181,0 -0.361,0.024 -0.538,0.073 -0.177,0.045 -0.333,0.121 -0.467,0.22 -0.135,0.1 -0.242,0.224 -0.325,0.376 -0.083,0.151 -0.122,0.332 -0.122,0.538 0,0.46 0.165,0.8 0.498,1.026 0.333,0.226 0.8,0.357 1.396,0.402 0.337,0.027 0.675,0.061 1.012,0.104 0.337,0.043 0.67,0.133 0.999,0.273 z m 0.941,-1.9 c -0.11,0.081 -0.162,0.273 -0.162,0.576 v 3.66 c 0,0.39 -0.064,0.717 -0.188,0.986 -0.126,0.267 -0.299,0.482 -0.52,0.642 -0.222,0.16 -0.479,0.276 -0.778,0.35 -0.299,0.075 -0.617,0.111 -0.954,0.111 -0.363,0 -0.707,-0.042 -1.031,-0.123 C -3.017,4.22 -3.302,4.09 -3.55,3.913 -3.796,3.734 -3.998,3.505 -4.154,3.224 -4.308,2.942 -4.398,2.604 -4.425,2.207 h 0.792 c 0.034,0.293 0.106,0.538 0.215,0.731 0.107,0.196 0.244,0.352 0.414,0.469 0.169,0.117 0.365,0.199 0.59,0.246 0.224,0.047 0.473,0.07 0.74,0.07 0.605,0 1.036,-0.126 1.29,-0.382 C -0.128,3.087 0,2.76 0,2.361 0,2.241 -0.015,2.109 -0.045,1.966 -0.077,1.823 -0.156,1.721 -0.286,1.661 -0.416,1.601 -0.583,1.552 -0.784,1.518 -0.988,1.484 -1.164,1.458 -1.311,1.441 L -2.387,1.298 c -1.567,-0.207 -2.35,-0.882 -2.35,-2.024 0,-0.329 0.062,-0.612 0.183,-0.85 0.12,-0.238 0.284,-0.439 0.492,-0.604 0.207,-0.164 0.448,-0.286 0.721,-0.363 0.273,-0.078 0.555,-0.117 0.85,-0.117 0.493,0 0.95,0.096 1.375,0.286 0.424,0.19 0.8,0.466 1.129,0.83 0,-0.121 0.008,-0.236 0.026,-0.343 0.017,-0.109 0.049,-0.209 0.096,-0.299 0.049,-0.09 0.111,-0.169 0.189,-0.233 0.079,-0.066 0.182,-0.107 0.312,-0.124 0.111,-0.027 0.227,-0.04 0.35,-0.04 0.113,0 0.227,0.019 0.344,0.053 0.117,0.034 0.205,0.06 0.265,0.077 v 0.611 C 1.266,-1.964 1.05,-1.983 0.941,-1.9" /></g><g
           transform="translate(286.5247,126.7346)"
           id="g120"><path
             id="path122"
             style="fill:#003056;fill-opacity:1;fill-rule:nonzero;stroke:none"
             d="m 0,0 c -0.243,0.354 -0.542,0.604 -0.895,0.745 -0.356,0.143 -0.74,0.214 -1.156,0.214 -0.466,0 -0.867,-0.103 -1.2,-0.31 C -3.584,0.44 -3.905,0.173 -4.218,-0.156 v 0.935 h -0.779 v -6.722 h 0.779 v 3.62 c 0,0.233 0.01,0.449 0.027,0.649 0.017,0.199 0.065,0.406 0.143,0.622 0.06,0.173 0.146,0.339 0.259,0.493 0.111,0.156 0.249,0.294 0.408,0.416 0.16,0.12 0.339,0.218 0.538,0.292 0.2,0.073 0.42,0.111 0.663,0.111 0.622,0 1.068,-0.153 1.335,-0.456 0.269,-0.303 0.403,-0.756 0.403,-1.362 v -4.385 h 0.779 v 4.399 c 0,0.276 -0.015,0.543 -0.045,0.799 C 0.261,-0.491 0.164,-0.243 0,0" /></g><g
           transform="translate(295.6855,124.159)"
           id="g124"><path
             id="path126"
             style="fill:#003056;fill-opacity:1;fill-rule:nonzero;stroke:none"
             d="m 0,0 c -0.32,0.143 -0.666,0.252 -1.038,0.331 -0.373,0.077 -0.717,0.166 -1.039,0.265 -0.318,0.1 -0.585,0.23 -0.798,0.39 -0.21,0.16 -0.317,0.391 -0.317,0.694 0,0.346 0.131,0.624 0.389,0.837 0.26,0.213 0.636,0.318 1.129,0.318 0.494,0 0.903,-0.105 1.226,-0.318 C -0.122,2.304 0.073,1.94 0.143,1.42 H 0.935 C 0.839,2.182 0.564,2.724 0.111,3.049 c -0.455,0.324 -1.046,0.486 -1.772,0.486 -0.753,0 -1.334,-0.179 -1.746,-0.538 -0.41,-0.36 -0.615,-0.819 -0.615,-1.383 0,-0.44 0.105,-0.783 0.318,-1.025 0.212,-0.241 0.478,-0.427 0.797,-0.557 0.32,-0.13 0.666,-0.228 1.039,-0.292 0.372,-0.064 0.719,-0.143 1.038,-0.233 0.32,-0.092 0.585,-0.216 0.798,-0.376 0.213,-0.16 0.318,-0.405 0.318,-0.734 0,-0.163 -0.036,-0.32 -0.104,-0.466 -0.069,-0.149 -0.171,-0.281 -0.304,-0.397 -0.136,-0.117 -0.307,-0.209 -0.514,-0.279 -0.207,-0.069 -0.453,-0.103 -0.739,-0.103 -0.587,0 -1.04,0.118 -1.357,0.357 -0.316,0.237 -0.534,0.646 -0.654,1.225 h -0.792 c 0.019,-0.32 0.086,-0.617 0.209,-0.894 0.12,-0.278 0.287,-0.519 0.506,-0.728 0.214,-0.207 0.477,-0.368 0.784,-0.485 0.307,-0.117 0.659,-0.177 1.057,-0.177 0.399,0 0.764,0.042 1.097,0.124 0.333,0.083 0.621,0.205 0.864,0.369 0.24,0.166 0.432,0.371 0.57,0.617 0.139,0.246 0.207,0.531 0.207,0.85 0,0.433 -0.106,0.77 -0.318,1.012 C 0.587,-0.335 0.32,-0.143 0,0" /></g><g
           transform="translate(303.1985,130.3161)"
           id="g128"><path
             id="path130"
             style="fill:#003056;fill-opacity:1;fill-rule:nonzero;stroke:none"
             d="m 0,0 c -0.519,0 -0.886,-0.156 -1.102,-0.468 -0.217,-0.311 -0.326,-0.734 -0.326,-1.27 v -1.065 h -0.999 v -0.649 h 0.999 v -6.073 h 0.779 v 6.073 h 1.298 v 0.649 h -1.298 v 0.83 c 0,0.156 0.007,0.31 0.021,0.461 0.011,0.152 0.043,0.287 0.096,0.41 0.052,0.12 0.135,0.218 0.246,0.291 0.113,0.074 0.269,0.109 0.468,0.109 0.138,0 0.294,-0.02 0.467,-0.064 v 0.713 C 0.546,-0.036 0.44,-0.023 0.337,-0.013 0.233,-0.004 0.12,0 0,0" /></g><g
           transform="translate(312.9959,123.1008)"
           id="g132"><path
             id="path134"
             style="fill:#003056;fill-opacity:1;fill-rule:nonzero;stroke:none"
             d="M 0,0 C -0.087,-0.337 -0.22,-0.64 -0.403,-0.907 -0.585,-1.176 -0.82,-1.39 -1.11,-1.55 -1.4,-1.71 -1.748,-1.791 -2.154,-1.791 c -0.372,0 -0.702,0.07 -0.986,0.209 -0.286,0.137 -0.523,0.331 -0.713,0.583 -0.192,0.252 -0.336,0.551 -0.436,0.903 -0.1,0.35 -0.149,0.732 -0.149,1.148 0,0.363 0.043,0.714 0.13,1.057 0.087,0.342 0.22,0.643 0.403,0.908 0.182,0.264 0.417,0.476 0.707,0.636 0.29,0.16 0.638,0.239 1.044,0.239 0.416,0 0.766,-0.073 1.052,-0.22 C -0.818,3.525 -0.585,3.324 -0.403,3.068 -0.22,2.814 -0.087,2.513 0,2.167 0.087,1.821 0.13,1.45 0.13,1.052 0.13,0.689 0.087,0.339 0,0 m 0.196,3.563 c -0.262,0.316 -0.585,0.566 -0.975,0.751 -0.389,0.188 -0.848,0.28 -1.375,0.28 -0.519,0 -0.973,-0.092 -1.362,-0.28 C -3.905,4.129 -4.231,3.875 -4.49,3.555 -4.748,3.236 -4.944,2.861 -5.074,2.432 -5.203,2.005 -5.267,1.544 -5.267,1.052 c 0,-0.589 0.08,-1.103 0.246,-1.545 0.164,-0.442 0.388,-0.809 0.668,-1.102 0.28,-0.294 0.609,-0.516 0.986,-0.662 0.376,-0.147 0.78,-0.224 1.213,-0.234 0.468,0 0.894,0.085 1.279,0.254 0.384,0.168 0.713,0.408 0.986,0.719 0.273,0.312 0.482,0.685 0.628,1.117 0.147,0.431 0.22,0.916 0.22,1.453 0,0.492 -0.062,0.955 -0.186,1.388 -0.126,0.433 -0.32,0.807 -0.577,1.123" /></g><g
           transform="translate(319.3275,126.2543)"
           id="g136"><path
             id="path138"
             style="fill:#003056;fill-opacity:1;fill-rule:nonzero;stroke:none"
             d="m 0,0 h -0.026 v 1.259 h -0.779 v -6.722 h 0.779 v 3.296 c 0,0.372 0.032,0.728 0.097,1.07 0.066,0.343 0.183,0.638 0.35,0.89 0.17,0.25 0.397,0.45 0.681,0.596 0.286,0.147 0.649,0.217 1.091,0.207 V 1.441 C 1.631,1.441 1.178,1.334 0.837,1.123 0.495,0.91 0.216,0.536 0,0" /></g><g
           transform="translate(334.8202,126.8706)"
           id="g140"><path
             id="path142"
             style="fill:#003056;fill-opacity:1;fill-rule:nonzero;stroke:none"
             d="m 0,0 c -0.147,0.246 -0.356,0.446 -0.628,0.596 -0.273,0.153 -0.638,0.228 -1.097,0.228 -0.485,0 -0.914,-0.105 -1.292,-0.318 -0.377,-0.213 -0.676,-0.538 -0.902,-0.978 -0.069,0.18 -0.154,0.35 -0.252,0.504 -0.101,0.156 -0.225,0.292 -0.376,0.408 -0.152,0.119 -0.337,0.211 -0.551,0.28 -0.218,0.068 -0.482,0.104 -0.792,0.104 -0.442,0 -0.849,-0.102 -1.221,-0.305 -0.373,-0.203 -0.657,-0.5 -0.856,-0.888 h -0.026 v 1.01 h -0.779 v -6.719 h 0.779 v 3.619 c 0,0.139 0.007,0.29 0.02,0.455 0.014,0.162 0.036,0.328 0.072,0.491 0.034,0.166 0.079,0.324 0.135,0.475 0.057,0.152 0.128,0.284 0.215,0.396 0.197,0.258 0.429,0.452 0.694,0.578 0.263,0.124 0.538,0.186 0.824,0.186 0.553,0 0.931,-0.137 1.134,-0.414 0.203,-0.276 0.307,-0.658 0.307,-1.142 v -4.644 h 0.777 v 3.619 c 0,0.139 0.007,0.29 0.019,0.455 0.015,0.162 0.037,0.328 0.073,0.491 0.034,0.166 0.079,0.324 0.135,0.475 0.057,0.152 0.128,0.284 0.215,0.396 0.199,0.258 0.431,0.452 0.694,0.578 0.263,0.124 0.538,0.186 0.824,0.186 0.553,0 0.931,-0.137 1.134,-0.414 0.206,-0.276 0.305,-0.658 0.305,-1.142 v -4.644 h 0.779 v 4.242 C 0.363,-1.497 0.34,-1.17 0.292,-0.85 0.245,-0.531 0.147,-0.246 0,0" /></g></g></g></g></svg>